<svg xmlns="http://www.w3.org/2000/svg" width="892" height="892" viewBox="0 0 892 892" version="1.1">
	<path d="M 411.500 1.065 C 290.039 11.157, 182.382 66.981, 102.881 161.094 C 46.931 227.328, 11.713 310.758, 1.823 400.500 C 0.045 416.627, 0.047 475.400, 1.826 491.500 C 16.632 625.545, 87.106 742.535, 197.908 817.005 L 207.316 823.328 209.145 821.069 C 212.771 816.592, 215.460 799.846, 214.417 788.245 C 213.768 781.036, 214.627 778, 217.314 778 C 217.901 778, 217.555 778.605, 216.544 779.344 C 215.005 780.470, 214.817 781.490, 215.389 785.594 C 216.843 796.013, 214.804 812.776, 211.195 820.070 L 209.254 823.994 212.863 826.247 C 214.848 827.486, 217.233 828.950, 218.164 829.500 C 219.094 830.050, 223.376 832.581, 227.678 835.124 C 259.652 854.027, 308.031 872.648, 348 881.437 C 384.242 889.406, 404.632 891.500, 446 891.500 C 482.055 891.500, 492.083 890.759, 520.637 885.982 C 545.757 881.781, 587 871.091, 587 868.782 C 587 868.287, 587.424 868.144, 587.942 868.464 C 589.080 869.167, 607.202 862.597, 623 855.754 C 750.708 800.437, 844.976 689.376, 878.998 554.150 C 884.097 533.884, 888.590 507.579, 890.066 489.348 C 890.683 481.732, 891.595 474.719, 892.094 473.764 C 893.375 471.309, 893.284 416.706, 892 417.500 C 891.386 417.879, 891 416.258, 891 413.303 C 891 398.797, 885.669 365.548, 878.993 338.420 C 849.574 218.863, 772.236 117.603, 663.749 56.593 C 612.452 27.746, 556.840 9.902, 495 2.446 C 479.048 0.522, 428.160 -0.319, 411.500 1.065 M 408 100.659 C 406.625 100.871, 399.425 101.971, 392 103.102 C 362.334 107.622, 337.499 115.246, 312.500 127.505 C 303.150 132.090, 292.575 137.744, 289 140.070 C 285.386 142.420, 277.172 146.184, 270.500 148.545 C 231.695 162.279, 196.832 182.777, 164.733 210.733 C 120.982 248.835, 87.734 304.789, 71.941 366.894 C 65.973 390.366, 64.601 401.269, 64.632 425 C 64.694 473.341, 73.064 507.907, 95.624 553 C 105.164 572.067, 118.779 593.710, 120.930 593.225 C 121.600 593.074, 121.852 593.431, 121.489 594.018 C 120.725 595.254, 127.765 604.263, 128.931 603.543 C 129.359 603.278, 130.787 604.285, 132.105 605.781 L 134.500 608.500 131.750 606.076 C 130.237 604.742, 129 604.088, 129 604.623 C 129 605.820, 136.183 612.934, 137.333 612.875 C 137.792 612.852, 138.467 613.168, 138.833 613.577 C 139.200 613.986, 138.938 613.997, 138.250 613.601 C 137.563 613.206, 137 613.302, 137 613.816 C 137 615.508, 160.484 635.907, 172.608 644.747 C 203.191 667.044, 236.208 680.672, 274 686.596 C 286.518 688.559, 323.596 688.815, 334.500 687.014 C 347.241 684.910, 356.409 684.746, 371.551 686.350 C 393.397 688.664, 723.192 688.771, 738.564 686.469 C 750.496 684.682, 757.624 681.471, 764.154 674.941 C 769.770 669.325, 770.856 666.012, 771.675 652 C 772.587 636.372, 772.092 637, 783.507 637 C 794.636 637, 800.984 635.214, 811.591 629.099 C 827.028 620.199, 832.800 611.755, 833.739 596.698 C 834.351 586.900, 833.018 580.086, 828.870 571.793 C 822.778 559.617, 815.846 554.566, 802.880 552.860 C 791.687 551.386, 792.200 551.633, 790.082 546.692 C 787.701 541.136, 780.589 534.978, 771.056 530.217 L 763.612 526.500 747.556 526.500 C 738.725 526.500, 725.108 527.085, 717.295 527.800 C 704.798 528.943, 702.163 528.908, 695.380 527.507 C 691.139 526.631, 687.126 525.596, 686.461 525.207 C 685.555 524.676, 686.050 521.260, 688.450 511.500 C 692.952 493.192, 697.708 470.249, 699.438 458.500 C 700.248 453, 701.455 445.057, 702.119 440.848 C 704.163 427.909, 700.320 413.367, 692.147 403.121 C 688.148 398.107, 676.851 392.164, 665.942 389.336 C 659.587 387.689, 658.942 387.706, 645.149 389.906 C 629.188 392.451, 620.295 392.165, 621.550 389.147 C 629.734 369.461, 632.886 324.650, 628.912 284.500 C 626.251 257.625, 617.797 227.703, 606.026 203.500 C 571.760 133.044, 514.032 99.530, 428 100.147 C 418.375 100.216, 409.375 100.446, 408 100.659 M 409.500 117.656 C 380.586 121.094, 358.392 126.497, 334.821 135.834 C 322.265 140.808, 297 152.954, 297 154.016 C 297 154.337, 300.712 154.210, 305.250 153.733 C 324.928 151.664, 365.516 155.805, 390.528 162.434 C 432.747 173.623, 468.133 194.393, 497.509 225.228 C 514.725 243.299, 525.230 258.309, 538.993 284.500 C 545.122 296.164, 544.911 296.038, 533.957 281.500 C 501.394 238.284, 469.671 210.430, 430 190.221 C 408.640 179.340, 392.570 173.654, 368.843 168.580 C 350.556 164.670, 339.501 163.680, 320.665 164.265 C 288.607 165.260, 260.774 172.874, 227.676 189.703 C 203.585 201.952, 185.832 215.149, 165.289 236.078 C 142.158 259.643, 127.113 280.749, 112.988 309.450 C 93.611 348.822, 84.423 384.114, 83.289 423.526 C 82.045 466.770, 89.802 501.381, 109.952 542.500 C 131.989 587.470, 166.231 623.716, 208 646.290 C 222.728 654.249, 244.393 662.197, 264.037 666.847 C 271.815 668.689, 293.038 671, 302.169 671 C 341.534 671, 384.636 654.847, 418.708 627.326 C 433.196 615.625, 454.791 593.881, 461.646 584.095 C 462.880 582.334, 462.824 582.138, 461.124 582.266 C 460.077 582.345, 459.418 582.925, 459.660 583.556 C 460.233 585.049, 442.656 599.600, 429.673 608.380 C 417.351 616.713, 395.301 627.592, 380.917 632.434 C 335.933 647.577, 286.820 644.433, 245.500 623.765 C 208.031 605.023, 180.678 576.645, 161.359 536.469 C 149.221 511.227, 140.519 479.162, 137.929 450.127 C 136.390 432.876, 137.249 394.275, 139.489 380 C 143.501 354.441, 150.248 333.288, 161.978 309.500 C 184.608 263.604, 216.208 229.895, 252.500 212.935 C 266.190 206.537, 279.714 202.933, 297.450 200.955 C 326.109 197.759, 383.696 209.818, 426.500 227.978 C 461.983 243.031, 487.426 259.759, 525.545 293.096 C 537.122 303.220, 551.056 318.115, 543.883 312.697 C 538.881 308.920, 524.909 303.014, 508.378 297.691 C 482.171 289.252, 464.487 286.539, 425.500 284.972 C 395.888 283.783, 382.985 282.613, 369.613 279.907 C 338.074 273.524, 313.453 258.269, 295.130 233.758 C 293.033 230.953, 291.217 229.383, 290.686 229.914 C 288.338 232.262, 293.997 253.014, 300.543 266.061 C 317.138 299.137, 341.765 317.722, 382.506 327.915 C 404.027 333.299, 415.799 334.153, 472.500 334.440 C 512.825 334.645, 518.850 334.888, 530.500 336.779 C 555.819 340.889, 572.747 349.027, 585.510 363.223 C 591.394 369.767, 594.650 375.353, 597.492 383.781 L 599.758 390.500 601.446 386.500 C 604.373 379.565, 607.863 363.029, 609.571 348 C 612.055 326.146, 611.159 290.729, 607.611 270.500 C 599.473 224.103, 582.636 189.402, 554.966 162 C 524.794 132.120, 481.699 116.695, 429.658 117.150 C 420.221 117.232, 411.150 117.460, 409.500 117.656 M 266.801 219.537 C 264.772 222.905, 260.801 238.747, 259.893 247.099 C 254.998 292.093, 285.197 340.621, 330.251 360.162 C 348.953 368.273, 374.531 373.670, 399 374.667 C 416.964 375.399, 438.298 373.870, 465 369.938 C 509.196 363.429, 516.098 362.790, 537 363.273 C 556.514 363.725, 561.390 364.523, 575.500 369.574 C 578.501 370.649, 569.336 361.435, 564 358.013 C 557.483 353.834, 544.898 349.044, 534.522 346.794 C 521.370 343.942, 488.573 343.303, 462.955 345.400 C 428.380 348.230, 399.056 347.078, 378.500 342.080 C 335.422 331.607, 300.872 305.887, 283.691 271.500 C 277.591 259.291, 272.350 243.828, 269.637 230.037 C 268.396 223.732, 267.120 219.007, 266.801 219.537 M 235.757 368.034 C 200.897 373.902, 176.279 404.816, 171.940 448.172 C 168.604 481.503, 183.044 502.564, 212.360 507.127 C 231.203 510.060, 249.496 504.484, 263.991 491.389 L 268.171 487.613 267.456 495.806 L 266.742 504 277.852 504 C 288.551 504, 288.981 503.917, 289.487 501.750 C 290.027 499.440, 302 433.965, 302 433.325 C 302 433.130, 288.854 433.089, 272.786 433.235 L 243.572 433.500 241.462 444.750 L 239.351 456 254.176 456 C 270.730 456, 270.618 455.941, 267.087 462.790 C 261.799 473.049, 250.073 480.987, 236.943 483.198 C 220.768 485.922, 206.599 477.003, 202.952 461.800 C 199.715 448.308, 204.826 425.695, 214.376 411.256 C 223.085 398.087, 232.374 393, 247.712 393 C 263.021 393, 271.756 398.965, 274.438 411.250 L 275.038 414 290.148 414 L 305.257 414 304.794 406.250 C 303.375 382.508, 281.785 366.777, 251.090 367.118 C 245.266 367.182, 238.366 367.595, 235.757 368.034 M 371.326 403.023 C 363.632 404.584, 353.718 411.221, 349.841 417.407 L 347.903 420.500 348.556 416.500 C 348.916 414.300, 349.565 410.813, 349.999 408.750 L 350.787 405 337.913 405 C 325.383 405, 325.024 405.060, 324.515 407.250 C 324.039 409.302, 321.166 425.581, 311.451 481.291 C 309.553 492.175, 308 501.738, 308 502.541 C 308 503.749, 310.364 504, 321.750 503.999 L 335.500 503.999 338.844 484.749 C 345.388 447.072, 347.225 441.520, 354.805 436.516 C 359.774 433.237, 370.104 430.673, 375.011 431.502 C 378.781 432.139, 378.896 432.070, 379.481 428.828 C 381.112 419.799, 383.783 403.484, 383.650 403.364 C 382.792 402.589, 374.585 402.362, 371.326 403.023 M 422.191 403.965 C 411.919 406.740, 405.658 410.436, 397.784 418.371 C 385.813 430.436, 378 450.027, 378 467.978 C 378 487.597, 386.358 499.633, 403.704 504.990 C 415.953 508.774, 434.295 507.060, 446.688 500.974 C 454.252 497.260, 464.508 487.440, 468.332 480.250 L 471.125 475 457.456 475 C 444.200 475, 443.731 475.073, 441.890 477.412 C 440.847 478.739, 437.656 480.989, 434.800 482.412 C 428.718 485.443, 418.783 485.973, 414.039 483.520 C 407.999 480.397, 404.275 472.252, 405.519 464.887 L 406.176 461 440.481 461 C 469.350 461, 474.873 460.773, 475.336 459.566 C 475.639 458.777, 476.396 454.412, 477.018 449.866 C 479.844 429.226, 473.018 413.073, 458.436 405.894 C 452.327 402.886, 450.882 402.595, 440.643 402.305 C 431.932 402.059, 427.905 402.421, 422.191 403.965 M 528.645 403.584 C 508.241 408.523, 491.820 426.609, 486.047 450.500 C 480.838 472.055, 483.728 487.175, 494.993 497.304 C 501.766 503.394, 509.118 506.103, 520.619 506.748 C 537.335 507.685, 551.751 502.754, 563.147 492.203 C 568.308 487.426, 574.960 478.184, 574.991 475.750 C 574.996 475.337, 569.115 475, 561.923 475 L 548.846 475 545.817 478.029 C 541.307 482.539, 537.261 484.248, 529.839 484.779 C 516.997 485.698, 509.584 479.091, 510.199 467.274 L 510.500 461.500 545.111 461.237 L 579.721 460.974 580.990 453.559 C 582.707 443.519, 581.872 431.042, 578.977 423.507 C 575.519 414.507, 567.460 406.840, 558.569 404.094 C 550.546 401.616, 537.680 401.397, 528.645 403.584 M 648.746 403.040 C 642.710 404.536, 635.097 408.829, 629.963 413.632 L 625.191 418.095 626.104 413.797 C 626.606 411.434, 627.246 408.488, 627.527 407.250 C 628.037 405.004, 628.017 405, 614.703 405 L 601.368 405 598.090 424.250 C 593.078 453.677, 585.086 499.228, 584.492 501.750 L 583.962 504 597.863 504 L 611.764 504 614.854 487.750 C 616.554 478.813, 619.095 464.750, 620.501 456.500 C 621.907 448.250, 623.808 439.768, 624.725 437.651 C 628.429 429.103, 639.968 424.919, 651.221 428.044 C 653.267 428.613, 655.629 430.060, 656.471 431.261 C 658.596 434.296, 658.426 443.680, 656.019 456.199 C 653.408 469.778, 648.002 501.163, 648.001 502.750 C 648 503.687, 651.327 504, 661.305 504 L 674.610 504 675.890 496.250 C 676.593 491.988, 679.171 478.375, 681.617 466 C 684.063 453.625, 686.333 439.675, 686.660 435 C 688.202 412.965, 680.195 402.763, 661 402.310 C 656.325 402.199, 650.811 402.528, 648.746 403.040 M 426.615 424.418 C 420.139 426.817, 411 437.584, 411 442.816 C 411 443.689, 416.259 444, 431 444 L 451 444 451 440.212 C 451 435.534, 447.411 428.280, 443.791 425.644 C 440.315 423.112, 431.786 422.503, 426.615 424.418 M 532.215 424.257 C 527.455 425.782, 520.286 432.501, 517.453 438.093 C 516.104 440.755, 515 443.173, 515 443.467 C 515 443.760, 524.288 444, 535.639 444 L 556.279 444 555.675 438.903 C 554.853 431.962, 552.292 427.925, 547.015 425.250 C 542.296 422.858, 537.570 422.541, 532.215 424.257 M 495 516.004 C 483.547 517.497, 475.218 523.689, 470.452 534.253 C 468.045 539.589, 467.575 542.104, 467.230 551.500 C 466.858 561.637, 467.016 562.852, 469.236 566.986 C 471.053 570.366, 472.984 572.176, 477.073 574.330 C 482.028 576.940, 483.195 577.151, 490.500 576.765 C 503.673 576.068, 513.403 569.504, 516.463 559.250 C 517.104 557.104, 516.875 557, 511.527 557 C 506.308 557, 505.663 557.270, 502.201 560.909 C 497.719 565.621, 492.744 566.927, 487.207 564.845 C 482.424 563.046, 480.002 558.389, 480.007 551 C 480.018 536.457, 487.326 527.012, 498.576 527.004 C 504.233 527, 507.543 529.415, 508.162 534 C 508.480 536.351, 508.901 536.518, 515.250 536.796 C 523.004 537.135, 523.083 537.008, 520.489 528.276 C 518.580 521.847, 513.861 517.468, 507.831 516.529 C 505.449 516.157, 502.825 515.726, 502 515.570 C 501.175 515.414, 498.025 515.609, 495 516.004 M 637.920 516.097 C 626.383 517.832, 617.992 526.309, 618.004 536.218 C 618.012 543.699, 623.708 548.567, 636.522 552.048 C 648.446 555.287, 650.377 557.777, 645.077 563.077 C 642.551 565.603, 641.403 566, 636.624 566 C 629.741 566, 626.477 564.566, 624.946 560.870 C 623.828 558.170, 623.409 558, 617.879 558 C 612.420 558, 612 558.163, 612 560.288 C 612 564.855, 616.283 571.379, 621 574 C 624.867 576.148, 626.767 576.500, 634.500 576.500 C 642.177 576.500, 644.342 576.105, 649.232 573.814 C 656.936 570.203, 661 564.097, 661 556.133 C 661 550.977, 660.746 550.414, 656.653 546.492 C 652.918 542.913, 650.879 541.935, 642.181 539.550 C 630.581 536.368, 629.237 535.365, 631.171 531.331 C 633.048 527.415, 636.598 525.840, 642.442 526.329 C 646.230 526.647, 647.864 527.337, 649.442 529.285 C 651.176 531.428, 652.484 531.881, 657.752 532.164 L 664.004 532.500 664.002 529.398 C 663.999 525.247, 660.273 519.878, 655.987 517.850 C 651.830 515.883, 644.242 515.146, 637.920 516.097 M 286.673 517.750 C 286.429 518.163, 285.914 520.835, 285.529 523.690 L 284.829 528.880 293.915 528.690 C 298.913 528.585, 303.001 528.755, 303.001 529.067 C 303 529.379, 301.200 539.193, 299 550.876 C 296.800 562.559, 295 572.788, 295 573.607 C 295 574.798, 296.247 575.036, 301.230 574.798 L 307.461 574.500 308.247 570 C 308.679 567.525, 310.508 557.224, 312.312 547.108 L 315.592 528.716 324.762 528.917 C 335.006 529.142, 334.017 529.895, 335.488 520.750 L 336.091 517 311.604 517 C 298.137 517, 286.918 517.337, 286.673 517.750 M 352.720 541.750 C 350.124 555.362, 347.714 568.436, 347.364 570.801 L 346.728 575.102 353.105 574.801 L 359.482 574.500 361.694 562.500 C 362.911 555.900, 363.928 550.388, 363.953 550.250 C 363.979 550.112, 369.550 550, 376.334 550 L 388.668 550 386.382 561.750 C 385.125 568.212, 384.074 573.837, 384.048 574.250 C 384.022 574.663, 386.925 575, 390.500 575 C 394.075 575, 397 574.695, 397 574.322 C 397 573.950, 399.250 561.386, 402 546.402 C 404.750 531.419, 407 518.653, 407 518.032 C 407 517.284, 404.898 517.005, 400.750 517.202 L 394.500 517.500 392.564 528.250 L 390.628 539 378.314 539 C 371.541 539, 366 538.825, 366 538.610 C 366 538.048, 368.949 521.918, 369.540 519.250 C 370.016 517.102, 369.752 517, 363.739 517 L 357.439 517 352.720 541.750 M 435.487 518.250 C 434.953 519.732, 425 572.793, 425 574.157 C 425 574.673, 427.785 574.961, 431.190 574.798 L 437.379 574.500 439.716 562 C 441.001 555.125, 443.168 543.425, 444.531 536 C 445.894 528.575, 447.268 521.263, 447.584 519.750 L 448.159 517 442.048 517 C 438.066 517, 435.780 517.435, 435.487 518.250 M 550 517.272 C 550 517.421, 547.526 530.134, 544.502 545.522 C 541.479 560.910, 539.004 573.837, 539.002 574.250 C 539.001 574.663, 541.670 575, 544.933 575 C 551.671 575, 551.044 575.836, 553.554 563.500 C 554.918 556.794, 555.692 555.062, 558.341 552.791 C 560.078 551.300, 561.950 550.076, 562.500 550.070 C 563.050 550.063, 566.016 555.558, 569.092 562.279 L 574.684 574.500 581.842 574.794 C 585.779 574.955, 589 574.761, 589 574.361 C 589 573.962, 586.239 567.755, 582.865 560.568 C 579.490 553.380, 575.939 545.663, 574.972 543.418 L 573.215 539.336 586.541 528.918 C 593.870 523.188, 599.897 518.163, 599.933 517.750 C 599.970 517.337, 596.567 517, 592.372 517 L 584.744 517 576.122 524.199 C 571.380 528.158, 565.204 533.331, 562.398 535.694 L 557.296 539.990 559.627 529.745 C 560.909 524.110, 561.967 518.938, 561.979 518.250 C 561.993 517.387, 560.145 517, 556 517 C 552.700 517, 550 517.122, 550 517.272 M 722 547.882 C 719.381 548.344, 718.500 549.001, 718.500 550.487 C 718.500 552.435, 719.117 552.468, 748.843 552.135 C 775.048 551.842, 779.139 551.995, 778.843 553.255 C 778.654 554.058, 775.807 566.847, 772.515 581.675 L 766.531 608.634 758.765 608.865 L 751 609.095 751 606.184 C 751 602.644, 747.054 598.390, 742.931 597.485 C 734.858 595.712, 725.228 604.510, 726.717 612.299 C 727.497 616.381, 733.310 621, 737.667 621 C 741.340 621, 747.350 617.983, 748.785 615.419 C 749.848 613.520, 782 612.164, 782 614.019 C 782 614.664, 782.887 616.437, 783.970 617.959 C 785.054 619.480, 785.718 620.948, 785.446 621.220 C 785.174 621.492, 785.750 622.342, 786.726 623.107 C 788.369 624.397, 788.390 624.360, 787.008 622.606 C 785.607 620.828, 785.669 620.764, 788.008 621.560 C 794.045 623.614, 801.190 620.788, 803.911 615.269 C 805.029 613, 806.206 612.039, 807.882 612.023 C 811.145 611.992, 816.156 608.723, 818.158 605.319 C 820.556 601.243, 823.207 590.230, 822.404 587.681 C 822.026 586.481, 819.568 581, 816.940 575.500 C 810.698 562.433, 809.576 561.737, 793.854 561.176 L 782.208 560.761 783.104 557.637 C 784.411 553.082, 784.207 550.350, 782.429 548.571 C 781.069 547.212, 777.125 547.018, 753.179 547.132 C 737.955 547.204, 723.925 547.542, 722 547.882 M 713.479 565.392 C 711.954 566.507, 711.815 567.072, 712.779 568.234 C 713.753 569.408, 716.413 569.598, 726.741 569.235 C 733.759 568.987, 739.897 568.414, 740.383 567.960 C 740.868 567.506, 740.995 566.429, 740.664 565.567 C 739.835 563.406, 716.401 563.255, 713.479 565.392 M 781 566.261 C 781 566.405, 778.975 575.687, 776.500 586.889 C 774.025 598.092, 772 607.537, 771.999 607.878 C 771.999 608.220, 774.149 608.351, 776.778 608.168 C 780.833 607.887, 781.809 607.398, 783.220 604.939 C 785.332 601.259, 790.623 598.007, 794.500 598.007 C 798.557 598.007, 803.804 601.370, 804.582 604.469 C 805.308 607.365, 806.890 607.625, 810.963 605.519 C 813.020 604.455, 814.302 602.608, 815.514 598.958 C 818.078 591.239, 817.689 588.381, 812.633 577.797 C 808.327 568.781, 807.733 568.020, 804.249 567.052 C 801.071 566.170, 781 565.486, 781 566.261 M 706.667 579.667 C 706.300 580.033, 706 581.158, 706 582.167 C 706 583.853, 707.063 583.999, 719.250 583.985 C 732.918 583.969, 735.733 583.351, 734.677 580.601 C 734.156 579.244, 732.030 579, 720.698 579 C 713.347 579, 707.033 579.300, 706.667 579.667 M 701.459 594.283 C 698.899 595.715, 699.841 597.885, 703.250 598.409 C 705.038 598.683, 711.340 599.184, 717.256 599.521 C 726.645 600.057, 728.091 599.927, 728.638 598.500 C 728.983 597.601, 728.868 596.483, 728.383 596.015 C 727.147 594.825, 703.239 593.287, 701.459 594.283 M 737.500 603.386 C 731.963 605.799, 730.239 609.763, 733.128 613.436 C 735.781 616.809, 740.236 616.855, 743.545 613.545 C 746.717 610.374, 746.826 605.692, 743.777 603.557 C 741.152 601.717, 741.318 601.722, 737.500 603.386 M 790.159 604.601 C 786.693 607.029, 785.714 610.547, 787.529 614.056 C 788.682 616.285, 789.754 617, 791.944 617 C 796.200 617, 797.904 616.087, 799.537 612.928 C 801.500 609.133, 801.381 607.381, 799 605 C 796.587 602.587, 793.250 602.436, 790.159 604.601 M 469 621.500 L 469 633 471.500 633 C 473.833 633, 474 632.667, 474 628 L 474 623 479 623 C 483.333 623, 484 622.733, 484 621 C 484 619.267, 483.333 619, 479 619 C 474.333 619, 474 618.833, 474 616.500 C 474 614.136, 474.300 614, 479.500 614 C 484.333 614, 485 613.758, 485 612 C 485 610.167, 484.333 610, 477 610 L 469 610 469 621.500 M 493 621.500 L 493 633 495.500 633 C 497.801 633, 498 632.637, 498 628.440 L 498 623.879 501.750 624.190 C 505.390 624.491, 505.509 624.625, 505.807 628.750 C 506.095 632.717, 506.311 633, 509.057 633 C 511.799 633, 512 632.740, 512 629.191 C 512 627.096, 511.380 624.534, 510.622 623.498 C 509.451 621.897, 509.451 621.406, 510.622 620.235 C 512.612 618.245, 512.315 614.315, 510 612 C 508.356 610.356, 506.667 610, 500.500 610 L 493 610 493 621.500 M 520 621.500 L 520 633 529.070 633 C 537.903 633, 538.131 632.941, 537.820 630.750 C 537.527 628.691, 536.970 628.500, 531.248 628.500 C 525.094 628.500, 524.996 628.457, 524.998 625.750 C 525 623.067, 525.141 623, 530.786 623 C 535.905 623, 536.571 622.770, 536.571 621 C 536.571 619.230, 535.905 619, 530.786 619 C 525.281 619, 525 618.879, 525 616.500 C 525 614.111, 525.267 614, 531 614 C 536.333 614, 537 613.778, 537 612 C 537 610.157, 536.333 610, 528.500 610 L 520 610 520 621.500 M 547 612 C 544.502 614.498, 544.429 618.173, 546.834 620.350 C 547.842 621.262, 551.020 622.708, 553.896 623.562 C 557.827 624.729, 559.045 625.535, 558.804 626.807 C 558.372 629.090, 552.751 629.608, 550.697 627.554 C 549.842 626.699, 547.970 626, 546.536 626 C 544.145 626, 544.028 626.186, 545.128 628.250 C 547.026 631.812, 549.162 632.934, 554.115 632.968 C 559.889 633.008, 564 630.145, 564 626.082 C 564 622.508, 561.707 620.550, 555.500 618.824 C 549.644 617.195, 548.696 614.674, 553.757 614.186 C 556 613.970, 557.201 614.359, 557.614 615.436 C 558.516 617.787, 563 617.472, 563 615.057 C 563 610.199, 551.079 607.921, 547 612 M 572.500 621.500 L 572.500 633 575.250 633 C 577.883 633, 578 632.788, 578 628 L 578 623 582.500 623 L 587 623 587 628 C 587 632.667, 587.167 633, 589.500 633 L 592 633 592 621.500 L 592 610 589.500 610 C 587.204 610, 587 610.367, 587 614.500 L 587 619 582.500 619 L 578 619 578 614.500 C 578 610.258, 577.843 610, 575.250 610 L 572.500 610 572.500 621.500 M 614 621.500 L 614 633 616.500 633 C 618.833 633, 619 632.667, 619 628 L 619 623 624.500 623 C 629.333 623, 630 622.758, 630 621 C 630 619.242, 629.333 619, 624.500 619 C 619.300 619, 619 618.864, 619 616.500 C 619 614.142, 619.307 614, 624.393 614 C 629.370 614, 631 613.116, 631 610.418 C 631 610.188, 627.175 610, 622.500 610 L 614 610 614 621.500 M 638 621.500 L 638 633 640.500 633 C 642.801 633, 643 632.637, 643 628.440 L 643 623.879 646.742 624.190 C 649.588 624.426, 650.555 624.979, 650.781 626.500 C 651.637 632.260, 652.062 633, 654.519 633 C 656.739 633, 657 632.587, 657 629.071 C 657 626.911, 656.338 624.480, 655.528 623.671 C 654.232 622.375, 654.232 622.053, 655.528 620.977 C 656.338 620.305, 657 618.261, 657 616.434 C 657 611.553, 654.171 610, 645.277 610 L 638 610 638 621.500 M 667.400 613.400 C 664.614 616.186, 664 617.557, 664 620.996 C 664 625.577, 666.100 629.957, 669.236 631.916 C 671.868 633.559, 679.200 633.517, 681.880 631.843 C 686.626 628.879, 688.407 620.191, 685.335 614.990 C 683.274 611.501, 680.121 610, 674.853 610 C 671.577 610, 670.148 610.652, 667.400 613.400 M 694 621.500 L 694 633 696.500 633 C 698.958 633, 699.001 632.862, 699.079 624.750 C 699.122 620.212, 699.321 616.950, 699.520 617.500 C 699.719 618.050, 700.828 621.763, 701.983 625.750 C 703.837 632.146, 704.367 633, 706.479 633 C 708.583 633, 709.174 632.063, 711.370 625.250 L 713.867 617.500 713.934 625.250 C 713.999 632.832, 714.054 633, 716.500 633 L 719 633 719 621.500 L 719 610 715.125 610 L 711.250 610 708.909 618.102 C 707.622 622.558, 706.480 625.821, 706.371 625.352 C 706.263 624.883, 705.223 621.237, 704.059 617.250 L 701.942 610 697.971 610 L 694 610 694 621.500 M 671.441 615.419 C 670 616.473, 669.500 618.040, 669.500 621.500 C 669.500 626.542, 671.467 629, 675.500 629 C 679.533 629, 681.500 626.542, 681.500 621.500 C 681.500 616.458, 679.533 614, 675.500 614 C 674.335 614, 672.509 614.639, 671.441 615.419 M 431 661.500 L 431 673 434 673 C 436.933 673, 437 672.889, 437 668 L 437 663 442 663 C 446.333 663, 447 662.733, 447 661 C 447 659.267, 446.333 659, 442 659 C 437.333 659, 437 658.833, 437 656.500 C 437 654.136, 437.300 654, 442.500 654 C 447.333 654, 448 653.758, 448 652 C 448 650.157, 447.333 650, 439.500 650 L 431 650 431 661.500 M 459 650.190 C 458.999 650.514, 452.681 668.204, 451.477 671.250 C 450.912 672.681, 451.332 673, 453.785 673 C 456.166 673, 456.915 672.474, 457.424 670.447 C 458.013 668.100, 458.447 667.918, 462.782 668.197 C 466.803 668.455, 467.547 668.833, 467.820 670.750 C 468.070 672.512, 468.789 673, 471.137 673 C 474.575 673, 474.697 673.994, 469.477 659.500 C 466.262 650.575, 466.205 650.497, 462.618 650.190 C 460.628 650.019, 459 650.019, 459 650.190 M 480 661.460 L 480 673 483.101 673 C 486.162 673, 486.197 672.943, 485.843 668.500 C 485.491 664.070, 485.533 664, 488.543 664 C 492.477 664, 494 665.591, 494 669.700 C 494 672.641, 494.302 673, 496.776 673 C 499.437 673, 499.537 672.823, 499.164 668.750 C 498.950 666.413, 498.377 664.005, 497.889 663.400 C 497.353 662.733, 497.642 661.020, 498.624 659.052 C 500.154 655.986, 500.134 655.656, 498.268 653.152 C 496.452 650.714, 495.634 650.477, 488.146 650.210 L 480 649.919 480 661.460 M 508 661.500 L 508 673 510.500 673 C 512.932 673, 513.001 672.803, 513.050 665.750 L 513.101 658.500 515.335 665.500 C 517.267 671.550, 517.916 672.541, 520.120 672.800 C 522.503 673.081, 522.839 672.558, 525.245 664.800 L 527.819 656.500 527.910 664.750 C 527.998 672.859, 528.043 673, 530.500 673 L 533 673 533 661.443 L 533 649.885 528.817 650.193 C 524.256 650.528, 524.719 649.805, 521.632 661.387 L 520.330 666.274 517.978 658.137 L 515.627 650 511.813 650 L 508 650 508 661.500 M 553.180 652.250 C 553.449 654.139, 554.022 654.448, 556.750 654.175 L 560 653.849 560 663.425 C 560 672.972, 560.007 673, 562.500 673 C 564.991 673, 565 672.967, 565 663.500 L 565 654 568.393 654 C 571.342 654, 573 652.711, 573 650.418 C 573 650.188, 568.469 650, 562.930 650 C 553.060 650, 552.867 650.044, 553.180 652.250 M 582.217 651.561 C 573.858 657.416, 576.678 671.354, 586.646 673.451 C 595.939 675.407, 603.078 664.850, 598.805 655.472 C 596.500 650.413, 587.040 648.182, 582.217 651.561 M 620 652 C 620 653.626, 620.667 654, 623.569 654 L 627.137 654 626.819 663.502 L 626.500 673.004 629.250 673.002 L 632 673 632 663.500 L 632 654 635.500 654 C 638.333 654, 639 653.619, 639 652 C 639 650.140, 638.333 650, 629.500 650 C 620.667 650, 620 650.140, 620 652 M 645.728 659.698 C 643.778 665.089, 641.868 670.288, 641.484 671.250 C 640.913 672.683, 641.330 673, 643.785 673 C 646.149 673, 646.916 672.471, 647.411 670.500 C 647.964 668.296, 648.572 668, 652.544 668 C 656.430 668, 657.180 668.344, 658 670.500 C 658.667 672.256, 659.702 673, 661.475 673 C 662.864 673, 663.976 672.663, 663.947 672.250 C 663.918 671.837, 662.193 666.775, 660.112 661 C 656.341 650.532, 656.319 650.499, 652.802 650.198 L 649.275 649.896 645.728 659.698 M 670 661.500 L 670 673 677.277 673 C 686.171 673, 689 671.447, 689 666.566 C 689 664.739, 688.338 662.695, 687.528 662.023 C 686.232 660.947, 686.232 660.625, 687.528 659.329 C 689.575 657.282, 689.365 654.365, 687 652 C 685.356 650.356, 683.667 650, 677.500 650 L 670 650 670 661.500 M 696.500 661.504 L 696.500 673.001 704.633 673.001 C 711.925 673, 712.821 672.793, 713.290 671 C 713.769 669.167, 713.320 669, 707.906 669 L 702 669 702 659.500 L 702 650 699.250 650.003 L 696.500 650.006 696.500 661.504 M 721 661.500 L 721 673 730 673 C 738.333 673, 739 672.852, 739 671 C 739 669.205, 738.333 669, 732.500 669 L 726 669 726 666 C 726 663.030, 726.056 663, 731.500 663 C 736.333 663, 737 662.758, 737 661 C 737 659.242, 736.333 659, 731.500 659 C 726.300 659, 726 658.864, 726 656.500 C 726 654.111, 726.267 654, 732 654 C 737.333 654, 738 653.778, 738 652 C 738 650.157, 737.333 650, 729.500 650 L 721 650 721 661.500 M 584.748 655.750 C 582.190 658.616, 582.094 664.951, 584.571 667.429 C 585.436 668.293, 587.435 669, 589.015 669 C 592.548 669, 595 665.837, 595 661.277 C 595 655.264, 588.372 651.690, 584.748 655.750" stroke="none" fill="#2a8f28" fill-rule="evenodd"/>
</svg>